<?xml version="1.0" encoding="UTF-8" standalone="no"?>
<!-- Created with Inkscape (http://www.inkscape.org/) -->

<svg
   width="500"
   height="500"
   viewBox="0 0 132.29168 132.29167"
   version="1.1"
   id="svg1"
   inkscape:version="1.3.2 (091e20e, 2023-11-25)"
   sodipodi:docname="drawing.svg"
   xmlns:inkscape="http://www.inkscape.org/namespaces/inkscape"
   xmlns:sodipodi="http://sodipodi.sourceforge.net/DTD/sodipodi-0.dtd"
   xmlns="http://www.w3.org/2000/svg"
   xmlns:svg="http://www.w3.org/2000/svg">
  <sodipodi:namedview
     id="namedview1"
     pagecolor="#505050"
     bordercolor="#eeeeee"
     borderopacity="1"
     inkscape:showpageshadow="0"
     inkscape:pageopacity="0"
     inkscape:pagecheckerboard="0"
     inkscape:deskcolor="#505050"
     inkscape:document-units="mm"
     inkscape:zoom="1.5475329"
     inkscape:cx="-42.971622"
     inkscape:cy="200.64194"
     inkscape:window-width="1512"
     inkscape:window-height="916"
     inkscape:window-x="0"
     inkscape:window-y="38"
     inkscape:window-maximized="0"
     inkscape:current-layer="layer1" />
  <defs
     id="defs1">
    <inkscape:path-effect
       effect="skeletal"
       id="path-effect2"
       is_visible="true"
       lpeversion="1"
       pattern="#path2"
       copytype="repeated_stretched"
       prop_scale="1"
       scale_y_rel="false"
       spacing="0"
       normal_offset="0"
       tang_offset="0"
       prop_units="false"
       vertical_pattern="false"
       hide_knot="false"
       fuse_tolerance="0" />
  </defs>
  <g
     inkscape:label="Layer 1"
     inkscape:groupmode="layer"
     id="layer1">
    <path
       id="path1"
       style="fill:none;stroke:#000000;stroke-width:0.913"
       d="m 138.19998,65.843971 h -17.3638 z m -1.53547,13.338914 -12.97755,-2.796221 z M 133.09529,90.651511 120.809,85.596635 Z m -5.42231,10.645229 -11.3295,-7.047993 z m -7.0654,9.61182 -10.10717,-8.77559 z m -9.43632,9.14278 -10.92737,-13.40791 10.92737,13.40791 -10.92737,-13.40791 z m -10.89524,7.35214 -6.476129,-11.64536 z m -10.915107,4.88675 -4.403103,-12.52225 z m -11.675303,2.97045 -2.064539,-13.1336 z m -12.210333,0.77624 0.529035,-13.37355 z m -13.22517,-2.0088 4.223412,-16.62613 -4.223412,16.62613 4.223412,-16.62613 z m -12.429709,-4.4629 5.682604,-12.0263 z m -10.356332,-5.93887 7.595816,-10.98959 z m -9.259711,-7.51874 9.243494,-9.68736 z m -7.953063,-8.88859 10.625636,-8.119585 z M 5.2526215,96.090176 20.560116,88.22431 5.2526215,96.090176 20.560116,88.22431 Z M 0.37632288,83.834143 13.110474,80.106861 Z M -1.976331,71.971185 11.289262,70.662375 Z m 8e-7,-12.254434 13.2655922,1.308812 z M 0.37632513,47.853794 13.110476,51.581077 Z M 5.2526252,35.597761 20.560119,43.463629 5.2526252,35.597761 20.560119,43.463629 Z m 6.9986718,-11.128844 10.625636,8.119587 z m 7.953064,-8.888588 9.243493,9.687357 z M 29.464073,8.0615895 37.059887,19.051181 Z M 39.820406,2.1227247 45.503008,14.149017 Z m 12.429709,-4.4628985 4.22341,16.6261248 -4.22341,-16.6261248 4.22341,16.6261248 z m 13.22517,-2.0087987 0.529034,13.3735436 z M 77.685619,-3.5727296 75.621077,9.5608648 Z M 89.360921,-0.60228209 84.957816,11.919962 Z M 100.27603,4.2844688 93.799897,15.929829 Z M 111.17127,11.63661 100.2439,25.044517 111.17127,11.63661 100.2439,25.044517 Z m 9.43632,9.142786 -10.10718,8.775581 z m 7.06539,9.611812 -11.3295,7.047996 z m 5.42232,10.645233 -12.2863,5.054875 z m 3.56921,11.468627 -12.97755,2.796219 z m 1.53548,13.338909 h -17.3638 z"
       inkscape:path-effect="#path-effect2"
       inkscape:original-d="M 129.51808,65.843971 A 61.590446,61.590446 0 0 1 67.927635,127.43442 61.590446,61.590446 0 0 1 6.3371887,65.843971 61.590446,61.590446 0 0 1 67.927635,4.2535248 61.590446,61.590446 0 0 1 129.51808,65.843971 Z" />
    <path
       id="path2"
       style="fill:#280b0b;stroke:#000000;stroke-width:3;stroke-dasharray:none;stroke-opacity:1"
       d="M -92.486344 34.652665 L -92.486344 52.016463 L -92.486344 34.652665 z M -81.016243 34.652665 L -81.016243 48.084403 L -81.016243 34.652665 z M -70.606543 34.652665 L -70.606543 48.084403 L -70.606543 34.652665 z M -60.196842 34.652665 L -60.196842 48.084403 L -60.196842 34.652665 z M -49.787142 34.652665 L -49.787142 48.084403 L -49.787142 34.652665 z M -38.317041 34.652665 L -38.317041 52.016463 L -38.317041 34.652665 z " />
    <path
       style="fill:#280b0b;stroke:#000000;stroke-width:3;stroke-dasharray:none;stroke-opacity:1"
       d="m -91.104165,-8.995834 c 0,17.363847 0,17.363847 0,17.363847"
       id="path2-8" />
    <path
       style="fill:#280b0b;stroke:#000000;stroke-width:3;stroke-dasharray:none;stroke-opacity:1"
       d="m -36.934728,-8.995834 c 0,17.363847 0,17.363847 0,17.363847"
       id="path2-43-6" />
    <path
       style="fill:#280b0b;stroke:#000000;stroke-width:0.879507;stroke-dasharray:none;stroke-opacity:1"
       d="m -79.63413,-8.995834 c 0,13.431513 0,13.431513 0,13.431513"
       id="path2-4-89" />
    <path
       style="fill:#280b0b;stroke:#000000;stroke-width:0.879507;stroke-dasharray:none;stroke-opacity:1"
       d="m -69.224341,-8.995834 c 0,13.431513 0,13.431513 0,13.431513"
       id="path2-4-4-4" />
    <path
       style="fill:#280b0b;stroke:#000000;stroke-width:0.879507;stroke-dasharray:none;stroke-opacity:1"
       d="m -58.814552,-8.995834 c 0,13.431513 0,13.431513 0,13.431513"
       id="path2-4-8-2" />
    <path
       style="fill:#280b0b;stroke:#000000;stroke-width:0.879507;stroke-dasharray:none;stroke-opacity:1"
       d="m -48.404763,-8.995834 c 0,13.431513 0,13.431513 0,13.431513"
       id="path2-4-1-9" />
  </g>
</svg>
